<svg xmlns="http://www.w3.org/2000/svg" viewBox="0 0 104.27 51.34"><defs><style>.cls-1{fill:#f4136b;}</style></defs><title>апапМонтажная область 9</title><g id="Слой_4" data-name="Слой 4"><path class="cls-1" d="M13.55.2H90.72l13.55,25.67L90.72,51.54H13.55L0,25.87Zm7.74,29,1.32-1.32V25.23l-.44-.44h-6.6v-.44l.44-.44h5.72l.88-.88v-.89H15.13L13.8,23.47v3.08h7.05V27l-.44.44H13.8v1.76Zm11,0V27.87l-.44-.44H27l-.88-.88h5.73l.44-.44V24.79h-7v-.88h7.05V22.14H23.5v4.41l2.64,2.64Zm9.25,0,.44-.44V27.43H36.27L35,26.11v-4H33.63l-.44.45V27l2.2,2.2Zm10.13,0V27.87l-.44-.44H46.41l-.88-.88h5.72l.44-.44V24.79h-7v-.88h7V22.14H42.88v4.41l2.65,2.64Zm9.26,0,.44-.44V27.43H55.66l-1.32-1.32v-2.2H61l.44-.44V22.14H52.57V27l2.21,2.2Zm6.6,0V23.91H70.2l.88-.88v-.89H62.27v1.77h3.52v5.28Zm13.22,0V27.87l-.44-.44H75.48l-.88-.88h5.73l.44-.44V24.79h-7v-.88h7V22.14H72v4.41l2.64,2.64Zm7.93,0,1.76-1.76v-4l-1.32-1.33H81.65v5.29l1.77,1.76Zm-4.4-1.76-.88-.88V23.91H88.7v2.64l-.88.88Z"/></g></svg>