<svg xmlns="http://www.w3.org/2000/svg" viewBox="0 0 198.58 122.09"><defs><style>.cls-1,.cls-2{fill:#ea1a7b;}.cls-2{opacity:0.5;}</style></defs><title>buy</title><g id="Слой_2" data-name="Слой 2"><g id="Слой_1-2" data-name="Слой 1"><path class="cls-1" d="M158.47,10.5,187.65,61l-29.18,50.55H40.11L10.93,61,40.11,10.5H158.47m1.61-9H38.5a6.21,6.21,0,0,0-5.38,3.1L2.33,57.94a6.21,6.21,0,0,0,0,6.21l30.79,53.33a6.22,6.22,0,0,0,5.38,3.11H160.08a6.22,6.22,0,0,0,5.38-3.11l30.79-53.33a6.21,6.21,0,0,0,0-6.21L165.46,4.6a6.21,6.21,0,0,0-5.38-3.1Z"/><path class="cls-2" d="M160.08,122.09H38.5a7.73,7.73,0,0,1-6.68-3.86L1,64.9a7.75,7.75,0,0,1,0-7.71L31.82,3.85A7.74,7.74,0,0,1,38.5,0H160.08a7.74,7.74,0,0,1,6.68,3.85l30.79,53.34a7.75,7.75,0,0,1,0,7.71l-30.79,53.33A7.73,7.73,0,0,1,160.08,122.09ZM38.5,3a4.72,4.72,0,0,0-4.08,2.35L3.63,58.69a4.72,4.72,0,0,0,0,4.71l30.79,53.33a4.73,4.73,0,0,0,4.08,2.36H160.08a4.73,4.73,0,0,0,4.08-2.36L195,63.4a4.72,4.72,0,0,0,0-4.71L164.16,5.35A4.72,4.72,0,0,0,160.08,3ZM159.34,113.09H39.24L9.2,61l30-52h120.1l30,52ZM41,110.09H157.61L185.92,61,157.61,12H41L12.66,61Z"/><path class="cls-1" d="M55.68,62.18V40.64H78.57l4,4v5.39l-1.35,1.34,1.35,1.35v8.08l-1.35,1.34ZM77.22,48.72V47.38L75.87,46H61.07v2.69Zm0,8.08V54.11H61.07V56.8Z"/><path class="cls-1" d="M92,62.18,85.3,55.45V40.64h4L90.68,42V52.76l4,4h10.77l1.35-1.35V40.64h5.39V62.18Z"/><path class="cls-1" d="M125.69,62.18V55.45H123l-8.08-8.07V42l1.34-1.35h4v4l5.39,5.39h5.38l5.39-5.39V42l1.34-1.35h4v6.74l-8.07,8.07h-2.7v6.73Z"/></g></g></svg>