<svg xmlns="http://www.w3.org/2000/svg" viewBox="0 0 556 993"><defs><style>.cls-1{fill:#ea1a7b;}.cls-2{fill:#9e0e5d;}.cls-3{fill:#f8b03b;}.cls-4{writing-mode:tb;text-orientation:upright;glyph-orientation-vertical:0deg;font-size:90.31px;fill:#f3931f;font-family:Sector-034, "Sector 034";letter-spacing:0.2em;}</style></defs><title>Монтажная область 19</title><g id="Слой_1" data-name="Слой 1"><rect class="cls-1" width="556" height="993"/><path class="cls-2" d="M556,827.38,520.88,773.1,469.8,712.44l-44.7-63.85L399.55,501.72l-31.92-57.47H335.7l-44.7-83,22.35-63.86,63.85,25.54-31.92-41.5L374,255.87l-3.19-38.31L402.75,192,556,166.48Zm-31.93-399.1,12.77-28.73-22.35-28.74-83-9.57-25.54,19.15-19.16,60.67,63.86,22.34Z"/><circle class="cls-3" cx="470.15" cy="408.6" r="25.54"/><text class="cls-4" transform="translate(169.49 205.86)">ELECTRO</text></g><g id="Слой_3" data-name="Слой 3"><polyline class="cls-2" points="156 993 81 705 69 693 78 579 69 564 123 414 111 399 120 267 102 246 105 189 141 195 174 240 207 240 216 225 234 237 252 237 255 231 255 216 246 204 294 240 309 240 315 234 315 219 279 171 213 126 210 108 150 96 150 78 141 69 30 69 15 87 -57 87 -84 123 -117 138 -165 171 -165 183 -156 189 -141 189 -120 177 -114 189 -87 189 -63 177 -81 213 -90 216 -90 231 -72 249 -12 249 39 192 39 246 27 267 36 399 24 414 -12 540 -24 549 -24 723 -33 738 -30 873 -39 888 -42 993"/></g></svg>