<svg xmlns="http://www.w3.org/2000/svg" viewBox="0 0 198.58 122.09"><defs><style>.cls-1,.cls-2{fill:#ea1a7b;}.cls-2{opacity:0.5;}</style></defs><title>select</title><g id="Слой_2" data-name="Слой 2"><g id="Слой_1-2" data-name="Слой 1"><path class="cls-1" d="M158.47,10.5,187.65,61l-29.18,50.55H40.11L10.93,61,40.11,10.5H158.47m1.61-9H38.5a6.21,6.21,0,0,0-5.38,3.1L2.33,57.94a6.21,6.21,0,0,0,0,6.21l30.79,53.33a6.22,6.22,0,0,0,5.38,3.11H160.08a6.22,6.22,0,0,0,5.38-3.11l30.79-53.33a6.21,6.21,0,0,0,0-6.21L165.46,4.6a6.21,6.21,0,0,0-5.38-3.1Z"/><path class="cls-2" d="M160.08,122.09H38.5a7.73,7.73,0,0,1-6.68-3.86L1,64.9a7.75,7.75,0,0,1,0-7.71L31.82,3.85A7.74,7.74,0,0,1,38.5,0H160.08a7.74,7.74,0,0,1,6.68,3.85l30.79,53.34a7.75,7.75,0,0,1,0,7.71l-30.79,53.33A7.73,7.73,0,0,1,160.08,122.09ZM38.5,3a4.72,4.72,0,0,0-4.08,2.35L3.63,58.69a4.72,4.72,0,0,0,0,4.71l30.79,53.33a4.73,4.73,0,0,0,4.08,2.36H160.08a4.73,4.73,0,0,0,4.08-2.36L195,63.4a4.72,4.72,0,0,0,0-4.71L164.16,5.35A4.72,4.72,0,0,0,160.08,3ZM159.34,113.09H39.24L9.2,61l30-52h120.1l30,52ZM41,110.09H157.61L185.92,61,157.61,12H41L12.66,61Z"/><path class="cls-1" d="M38.68,67.81V64H52.9l1-.95v-1H38.68V55.49l2.84-2.85H57.64v1.9l-1.9,1.9H43.42l-1,.94v.95H56.69l1,1V65L54.8,67.81Z"/><path class="cls-1" d="M65.22,67.81l-5.68-5.69V52.64h19v3.8H63.33v1.89H78.5v2.85l-1,.94H65.22l1.9,1.9H77.55l1,1v2.84Z"/><path class="cls-1" d="M85.13,67.81l-4.74-4.74V53.59l1-1h2.84v8.54L87,64H99.35v2.84l-.95,1Z"/><path class="cls-1" d="M106.94,67.81l-5.69-5.69V52.64h19v3.8H105v1.89h15.17v2.85l-.95.94H106.94l1.89,1.9h10.43l.95,1v2.84Z"/><path class="cls-1" d="M126.85,67.81l-4.74-4.74V52.64h19v2.85l-.95.95H125.9v4.74L128.74,64h12.33v2.84l-.95,1Z"/><path class="cls-1" d="M150.55,67.81V56.44H143v-3.8h19v1.9L160,56.44h-5.69V67.81Z"/></g></g></svg>