<svg xmlns="http://www.w3.org/2000/svg" viewBox="0 0 201.58 125.09"><defs><style>.cls-1,.cls-2{fill:#ea1a7b;}.cls-1{opacity:0.5;}</style></defs><title>selected</title><g id="Слой_2" data-name="Слой 2"><g id="Слой_1-2" data-name="Слой 1"><path class="cls-1" d="M161.58,3A6.21,6.21,0,0,1,167,6.1l30.79,53.34a6.21,6.21,0,0,1,0,6.21L167,119a6.22,6.22,0,0,1-5.38,3.11H40A6.22,6.22,0,0,1,34.62,119L3.83,65.65a6.21,6.21,0,0,1,0-6.21L34.62,6.1A6.21,6.21,0,0,1,40,3H161.58m0-3H40a9.24,9.24,0,0,0-8,4.6L1.23,57.94a9.24,9.24,0,0,0,0,9.21L32,120.48a9.25,9.25,0,0,0,8,4.61H161.58a9.25,9.25,0,0,0,8-4.61l30.79-53.33a9.24,9.24,0,0,0,0-9.21L169.56,4.6a9.24,9.24,0,0,0-8-4.6Z"/><polygon class="cls-2" points="162.2 63.94 163.96 65.7 171 65.7 172.76 63.94 172.76 58.66 162.2 58.66 162.2 63.94"/><path class="cls-2" d="M197.75,59.44,167,6.1A6.21,6.21,0,0,0,161.58,3H40a6.21,6.21,0,0,0-5.38,3.1L3.83,59.44a6.21,6.21,0,0,0,0,6.21L34.62,119A6.22,6.22,0,0,0,40,122.09H161.58A6.22,6.22,0,0,0,167,119l30.79-53.33A6.21,6.21,0,0,0,197.75,59.44Zm-157-2.54L39,58.66H27.58l-.88.88v.88H39.9l.88.88v5.28l-2.64,2.64h-15V65.7h13.2l.88-.88v-.88H23.18V57.78l2.64-2.64h15Zm19.35,1.76H46.06v1.76H60.13v2.64l-.88.88H47.82l1.76,1.76h9.67l.88.88v2.64H47.82l-5.28-5.28v-8.8H60.13Zm19.36,9.68-.88.88H66.29l-4.4-4.4V56l.88-.88h2.64v7.92l2.64,2.64H79.49Zm19.36-9.68H84.77v1.76H98.85v2.64l-.88.88H86.53l1.76,1.76H98l.88.88v2.64H86.53l-5.28-5.28v-8.8h17.6Zm19.35-.88-.88.88H104.13v4.4l2.64,2.64H118.2v2.64l-.88.88H105l-4.4-4.4V55.14H118.2Zm19.36-.88-1.76,1.76h-5.28V69.22H127V58.66h-7V55.14h17.6Zm19.36,1.76H142.84v1.76h14.08v2.64l-.88.88H144.6l1.76,1.76H156l.88.88v2.64H144.6l-5.28-5.28v-8.8h17.6Zm19.36,7-3.52,3.52H162.2l-3.52-3.52V55.14h15l2.64,2.64Z"/></g></g></svg>