<svg xmlns="http://www.w3.org/2000/svg" viewBox="0 0 201.58 125.09"><defs><style>.cls-1,.cls-2{fill:#ea1a7b;}.cls-1{opacity:0.5;}</style></defs><title>выбрано</title><g id="Слой_2" data-name="Слой 2"><g id="Слой_1-2" data-name="Слой 1"><path class="cls-1" d="M161.58,3A6.21,6.21,0,0,1,167,6.1l30.79,53.34a6.21,6.21,0,0,1,0,6.21L167,119a6.22,6.22,0,0,1-5.38,3.11H40A6.22,6.22,0,0,1,34.62,119L3.83,65.65a6.21,6.21,0,0,1,0-6.21L34.62,6.1A6.21,6.21,0,0,1,40,3H161.58m0-3H40a9.24,9.24,0,0,0-8,4.6L1.23,57.94a9.24,9.24,0,0,0,0,9.21L32,120.48a9.25,9.25,0,0,0,8,4.61H161.58a9.25,9.25,0,0,0,8-4.61l30.79-53.33a9.24,9.24,0,0,0,0-9.21L169.56,4.6a9.24,9.24,0,0,0-8-4.6Z"/><polygon class="cls-2" points="52.16 64.23 52.16 66.15 59.85 66.15 59.85 65.19 58.89 64.23 52.16 64.23"/><polygon class="cls-2" points="128.09 60.39 129.05 59.42 129.05 58.46 119.44 58.46 117.52 60.39 128.09 60.39"/><polygon class="cls-2" points="107.91 59.42 107.91 58.46 96.37 58.46 96.37 62.31 105.02 62.31 107.91 59.42"/><polygon class="cls-2" points="75.23 66.15 86.76 66.15 86.76 65.19 85.8 64.23 75.23 64.23 75.23 66.15"/><path class="cls-2" d="M197.75,59.44,167,6.1A6.21,6.21,0,0,0,161.58,3H40a6.21,6.21,0,0,0-5.38,3.1L3.83,59.44a6.21,6.21,0,0,0,0,6.21L34.62,119A6.22,6.22,0,0,0,40,122.09H161.58A6.22,6.22,0,0,0,167,119l30.79-53.33A6.21,6.21,0,0,0,197.75,59.44ZM46.4,61.35l-1,1,1,1V69l-1,1H27.18V54.62H43.52L46.4,57.5ZM63.7,69l-1,1H48.32V54.62h3.85v5.77h8.64l2.89,2.88Zm5.76,1H65.62V54.62H68.5l1,1ZM90.61,58.46H75.23v1.93H87.72l2.89,2.88V69l-1,1H71.39V54.62H88.68l1.93,1.92Zm21.14,2.89-4.81,4.8H96.37V70H93.49l-1-1V55.58l1-1h18.26ZM132.89,69l-1,1h-2.88V65.19l-1-1H117.52V69l-1,1h-2.89V59.42l4.81-4.8h14.41ZM154,70h-3.85V64.23H138.66V69l-1,1h-2.89V54.62h3.85v5.77h11.53V54.62h2.88l1,1Zm21.14,0H156V59.42l4.8-4.8h14.42Z"/><rect class="cls-2" x="31.02" y="64.23" width="11.53" height="1.92"/><polygon class="cls-2" points="159.8 66.15 171.33 66.15 171.33 58.46 162.68 58.46 159.8 61.35 159.8 66.15"/><polygon class="cls-2" points="31.02 58.46 31.02 60.39 42.55 60.39 42.55 59.42 41.59 58.46 31.02 58.46"/></g></g></svg>