<svg xmlns="http://www.w3.org/2000/svg" viewBox="0 0 212.5 168"><defs><style>.cls-1,.cls-2{fill:#ea1a7b;}.cls-1{opacity:0.5;}</style></defs><title>играть анг</title><g id="Слой_2" data-name="Слой 2"><g id="Слой_1-2" data-name="Слой 1"><path class="cls-1" d="M181.75,168H54.63a30.53,30.53,0,0,1-21.74-9L9,135.11a30.55,30.55,0,0,1-9-21.74V30.75A30.78,30.78,0,0,1,30.75,0H157.87a30.53,30.53,0,0,1,21.74,9l23.88,23.88a30.55,30.55,0,0,1,9,21.74v82.62A30.78,30.78,0,0,1,181.75,168ZM30.75,15A15.77,15.77,0,0,0,15,30.75v82.62a15.67,15.67,0,0,0,4.61,11.14l23.88,23.88A15.67,15.67,0,0,0,54.63,153H181.75a15.77,15.77,0,0,0,15.75-15.75V54.63a15.67,15.67,0,0,0-4.61-11.14L169,19.61A15.67,15.67,0,0,0,157.87,15Z"/><path class="cls-2" d="M54,160.5a21.82,21.82,0,0,1-15.43-6.39L13.89,129.39A21.82,21.82,0,0,1,7.5,114V29.32A21.82,21.82,0,0,1,29.32,7.5H158.46a21.82,21.82,0,0,1,15.43,6.39l24.72,24.72A21.82,21.82,0,0,1,205,54v84.64a21.82,21.82,0,0,1-21.82,21.82H54ZM33,100.43V93H53.56l9.35-9.36V70.5H27.37L25.5,72.37V98.56l1.87,1.87Zm0-15V78H55.43v1.87l-5.61,5.61Zm69.21,15,1.87-1.87V93H79.75l-5.62-5.62V70.5H68.52l-1.87,1.87V91.08L76,100.43Zm11.23,0,1.87-1.87V89.21h22.44v11.22h5.62l1.87-1.87V70.5H117.16l-9.36,9.35v20.58Zm1.87-18.71L119,78h18.7v3.74Zm56.11,18.71V91.08h3.74l11.23-11.23V70.5h-5.61l-1.87,1.87v3.74l-7.49,7.48h-7.48l-7.48-7.48V70.5h-5.61L149,72.37v7.48l11.22,11.23h3.74v9.35Z"/></g></g></svg>