<svg xmlns="http://www.w3.org/2000/svg" viewBox="0 0 212.5 168"><defs><style>.cls-1,.cls-2{fill:#ea1a7b;}.cls-1{opacity:0.5;}</style></defs><title>играть рус</title><g id="Слой_2" data-name="Слой 2"><g id="Слой_1-2" data-name="Слой 1"><path class="cls-1" d="M181.75,168H54.63a30.53,30.53,0,0,1-21.74-9L9,135.11a30.55,30.55,0,0,1-9-21.74V30.75A30.78,30.78,0,0,1,30.75,0H157.87a30.53,30.53,0,0,1,21.74,9l23.88,23.88a30.55,30.55,0,0,1,9,21.74v82.62A30.78,30.78,0,0,1,181.75,168ZM30.75,15A15.77,15.77,0,0,0,15,30.75v82.62a15.67,15.67,0,0,0,4.61,11.14l23.88,23.88A15.67,15.67,0,0,0,54.63,153H181.75a15.77,15.77,0,0,0,15.75-15.75V54.63a15.67,15.67,0,0,0-4.61-11.14L169,19.61A15.67,15.67,0,0,0,157.87,15Z"/><path class="cls-2" d="M198.61,38.61,173.89,13.89A21.82,21.82,0,0,0,158.46,7.5H29.32A21.82,21.82,0,0,0,7.5,29.32V114a21.82,21.82,0,0,0,6.39,15.43l24.72,24.72A21.82,21.82,0,0,0,54,160.5H183.18A21.82,21.82,0,0,0,205,138.68V54A21.82,21.82,0,0,0,198.61,38.61ZM47.29,94.49H42.05V80.07L27.63,94.49H23.69l-2.62-2.62V73.51H25l1.32,1.31V87.93L40.74,73.51H46l1.31,1.31ZM76.13,78.76H56.47l-1.31,1.31V94.49H51.22l-1.31-1.31V77.45l3.94-3.94h21l1.31,1.31ZM105,82.69l-6.56,6.56H84v5.24H80.07l-1.31-1.31V74.82l1.31-1.31H105Zm28.84,10.49-1.31,1.31h-3.94V87.93l-1.31-1.31H112.84v6.56l-1.31,1.31H107.6V80.07l6.55-6.56h19.67Zm28.84-14.42H152.17V94.49h-5.24V78.76H136.44V73.51h26.22ZM191.5,93.18l-1.31,1.31H165.28v-21h5.24v7.87h17l3.93,3.93Z"/><polygon class="cls-2" points="99.73 80.07 99.73 78.76 84 78.76 84 84 95.8 84 99.73 80.07"/><polygon class="cls-2" points="127.26 81.38 128.57 80.07 128.57 78.76 115.46 78.76 112.84 81.38 127.26 81.38"/><polygon class="cls-2" points="170.52 86.62 170.52 89.25 186.26 89.25 186.26 87.94 184.94 86.62 170.52 86.62"/></g></g></svg>