<svg xmlns="http://www.w3.org/2000/svg" viewBox="0 0 198.58 122.09"><defs><style>.cls-1,.cls-2{fill:#ea1a7b;}.cls-2{opacity:0.5;}</style></defs><title>купить</title><g id="Слой_2" data-name="Слой 2"><g id="Слой_1-2" data-name="Слой 1"><path class="cls-1" d="M158.47,10.5,187.65,61l-29.18,50.55H40.11L10.93,61,40.11,10.5H158.47m1.61-9H38.5a6.21,6.21,0,0,0-5.38,3.1L2.33,57.94a6.21,6.21,0,0,0,0,6.21l30.79,53.33a6.22,6.22,0,0,0,5.38,3.11H160.08a6.22,6.22,0,0,0,5.38-3.11l30.79-53.33a6.21,6.21,0,0,0,0-6.21L165.46,4.6a6.21,6.21,0,0,0-5.38-3.1Z"/><path class="cls-2" d="M160.08,122.09H38.5a7.73,7.73,0,0,1-6.68-3.86L1,64.9a7.75,7.75,0,0,1,0-7.71L31.82,3.85A7.74,7.74,0,0,1,38.5,0H160.08a7.74,7.74,0,0,1,6.68,3.85l30.79,53.34a7.75,7.75,0,0,1,0,7.71l-30.79,53.33A7.73,7.73,0,0,1,160.08,122.09ZM38.5,3a4.72,4.72,0,0,0-4.08,2.35L3.63,58.69a4.72,4.72,0,0,0,0,4.71l30.79,53.33a4.73,4.73,0,0,0,4.08,2.36H160.08a4.73,4.73,0,0,0,4.08-2.36L195,63.4a4.72,4.72,0,0,0,0-4.71L164.16,5.35A4.72,4.72,0,0,0,160.08,3ZM159.34,113.09H39.24L9.2,61l30-52h120.1l30,52ZM41,110.09H157.61L185.92,61,157.61,12H41L12.66,61Z"/><path class="cls-1" d="M37.68,61.5V47.08l1-1h2.88v5.77h1.93L45.37,50h4.8L54,46.12H56.9V50h-1l-3.85,3.85H48.25l3.84,3.84h3.85l1,1V61.5H50.17l-5.76-5.77H41.52V61.5Z"/><path class="cls-1" d="M59.78,61.5l-1-1V57.65H72.28l1.92-1.92H58.82V46.12h3.85v5.77H74.2V46.12H78V57.65L74.2,61.5Z"/><path class="cls-1" d="M80,61.5V46.12H97.26L99.19,48V61.5H95.34V50.92l-1-1H83.81V60.54l-1,1Z"/><path class="cls-1" d="M103,61.5l-1.92-1.93V46.12H104l1,1v9.61l10.57-10.57h3.85l1,1V61.5h-3.85V50.92L105.91,61.5Z"/><path class="cls-1" d="M129.94,61.5V50h-7.69V46.12h19.22V50h-7.69V61.5Z"/><path class="cls-1" d="M143.39,61.5V46.12h3.85v5.77h12.49l2.88,2.88v5.77l-1,1Zm15.38-3.85v-1l-1-1H147.24v1.92Z"/><path class="cls-1" d="M74.44,89.55H55.17V70.28H74.44Zm-15-3.42.75-.75V81.61h9.06v4.52H71.5l.76-.75V74.06H60.94l-3.77,3.77v8.3Zm.75-7.54,1.51-1.51h7.55v1.51Z"/></g></g></svg>