<svg xmlns="http://www.w3.org/2000/svg" viewBox="0 0 110 30"><defs><style>.cls-1,.cls-2{fill:#ea1a7b;}.cls-2{opacity:0.5;}</style></defs><title>купить ап</title><g id="Слой_2" data-name="Слой 2"><g id="Слой_1-2" data-name="Слой 1"><path class="cls-1" d="M102.68,2.5a4.82,4.82,0,0,1,4.82,4.82V22.68a4.82,4.82,0,0,1-4.82,4.82H7.32A4.82,4.82,0,0,1,2.5,22.68V7.32A4.82,4.82,0,0,1,7.32,2.5h95.36m0-2H7.32A6.82,6.82,0,0,0,.5,7.32V22.68A6.82,6.82,0,0,0,7.32,29.5h95.36a6.82,6.82,0,0,0,6.82-6.82V7.32A6.82,6.82,0,0,0,102.68.5Z"/><path class="cls-2" d="M102.68,30H7.32A7.32,7.32,0,0,1,0,22.68V7.32A7.32,7.32,0,0,1,7.32,0h95.36A7.32,7.32,0,0,1,110,7.32V22.68A7.32,7.32,0,0,1,102.68,30ZM7.32,1A6.33,6.33,0,0,0,1,7.32V22.68A6.33,6.33,0,0,0,7.32,29h95.36A6.33,6.33,0,0,0,109,22.68V7.32A6.33,6.33,0,0,0,102.68,1Zm95.36,27H7.32A5.33,5.33,0,0,1,2,22.68V7.32A5.33,5.33,0,0,1,7.32,2h95.36A5.33,5.33,0,0,1,108,7.32V22.68A5.33,5.33,0,0,1,102.68,28ZM7.32,3A4.33,4.33,0,0,0,3,7.32V22.68A4.33,4.33,0,0,0,7.32,27h95.36A4.33,4.33,0,0,0,107,22.68V7.32A4.33,4.33,0,0,0,102.68,3Z"/><path class="cls-1" d="M31.07,20.93v-12H43.82l2.25,2.25v3l-.75.75.75.75v4.5l-.75.75Zm12-7.5v-.75l-.75-.75H34.07v1.5Zm0,4.5v-1.5h-9v1.5Z"/><path class="cls-1" d="M51.32,20.93l-3.75-3.75V8.93h2.25l.75.75v6l2.25,2.25h6l.75-.75V8.93h3v12Z"/><path class="cls-1" d="M70.07,20.93V17.18h-1.5l-4.5-4.5v-3l.75-.75h2.25v2.25l3,3h3l3-3V9.68l.75-.75h2.25v3.75l-4.5,4.5h-1.5v3.75Z"/></g></g></svg>