<svg xmlns="http://www.w3.org/2000/svg" viewBox="0 0 110 30"><defs><style>.cls-1{fill:#ef1385;}.cls-2,.cls-3{fill:#ea1a7b;}.cls-3{opacity:0.5;}</style></defs><title>купить рус ап</title><g id="Слой_2" data-name="Слой 2"><g id="Слой_1-2" data-name="Слой 1"><path class="cls-1" d="M20.13,19V11l.53-.53h1.59v3.17H23.3l1.06-1.05H27l2.11-2.12h1.59v2.12h-.53l-2.12,2.11H26l2.11,2.12h2.12l.53.53V19H27l-3.18-3.17H22.25V19Z"/><path class="cls-1" d="M32.29,19l-.52-.53V16.85h7.4l1.06-1.06H31.77V10.5h2.11v3.17h6.35V10.5h2.11v6.35L40.23,19Z"/><path class="cls-1" d="M43.4,19V10.5h9.52L54,11.56V19H51.86V13.14l-.52-.52H45.52v5.81L45,19Z"/><path class="cls-1" d="M56.1,19,55,17.91V10.5h1.58l.53.53v5.29L63,10.5h2.12l.53.53V19H63.5V13.14L57.68,19Z"/><path class="cls-1" d="M70.91,19V12.62H66.67V10.5H77.25v2.12H73V19Z"/><path class="cls-1" d="M78.31,19V10.5h2.12v3.17H87.3l1.59,1.59v3.17l-.53.53Zm8.46-2.11v-.53l-.53-.53H80.43v1.06Z"/><path class="cls-2" d="M102.68,2.5a4.82,4.82,0,0,1,4.82,4.82V22.68a4.82,4.82,0,0,1-4.82,4.82H7.32A4.82,4.82,0,0,1,2.5,22.68V7.32A4.82,4.82,0,0,1,7.32,2.5h95.36m0-2H7.32A6.82,6.82,0,0,0,.5,7.32V22.68A6.82,6.82,0,0,0,7.32,29.5h95.36a6.82,6.82,0,0,0,6.82-6.82V7.32A6.82,6.82,0,0,0,102.68.5Z"/><path class="cls-3" d="M102.68,30H7.32A7.32,7.32,0,0,1,0,22.68V7.32A7.32,7.32,0,0,1,7.32,0h95.36A7.32,7.32,0,0,1,110,7.32V22.68A7.32,7.32,0,0,1,102.68,30ZM7.32,1A6.33,6.33,0,0,0,1,7.32V22.68A6.33,6.33,0,0,0,7.32,29h95.36A6.33,6.33,0,0,0,109,22.68V7.32A6.33,6.33,0,0,0,102.68,1Zm95.36,27H7.32A5.33,5.33,0,0,1,2,22.68V7.32A5.33,5.33,0,0,1,7.32,2h95.36A5.33,5.33,0,0,1,108,7.32V22.68A5.33,5.33,0,0,1,102.68,28ZM7.32,3A4.33,4.33,0,0,0,3,7.32V22.68A4.33,4.33,0,0,0,7.32,27h95.36A4.33,4.33,0,0,0,107,22.68V7.32A4.33,4.33,0,0,0,102.68,3Z"/></g></g></svg>