<svg xmlns="http://www.w3.org/2000/svg" viewBox="0 0 201 75"><defs><style>.cls-1,.cls-2{fill:#ea1a7b;}.cls-2{opacity:0.5;}</style></defs><title>магазин рус</title><g id="Слой_2" data-name="Слой 2"><g id="Слой_1-2" data-name="Слой 1"><path class="cls-1" d="M69.48,44.39V34.8l2.22-2.21H87.18V43.65l-.74.74H84.23V35.54H79.81v7.37l-1.48,1.48H76.86V35.54H73.17l-.74.74v8.11Z"/><path class="cls-1" d="M88.66,44.39V36.28l3.68-3.69h11.07V43.65l-.74.74h-2.21V40.7L99.72,40H91.61v3.69l-.74.74ZM99.72,37l.74-.73v-.74H93.08L91.61,37Z"/><path class="cls-1" d="M105.62,44.39l-.74-.74V34.8l2.21-2.21h11.8l.74.74v2.21H108.57l-.74.74v8.11Z"/><path class="cls-1" d="M121.1,44.39V36.28l3.69-3.69h11.06V43.65l-.73.74H132.9V40.7l-.73-.74h-8.12v3.69l-.73.74ZM132.17,37l.73-.73v-.74h-7.37L124.05,37Z"/><path class="cls-1" d="M138.07,44.39l-.74-.74V41.44h10.32L149.13,40H141l-.74-.73V37h8.85V35.54H138.07l-.74-.74V32.59h14.75v5.16l-.74.74.74.74v2.21l-3,3Z"/><path class="cls-1" d="M155,44.39l-1.48-1.48V32.59h2.21l.74.74V40.7l8.11-8.11h2.95l.74.74V44.39h-3V36.28l-8.11,8.11Z"/><path class="cls-1" d="M169.78,44.39V32.59h2.95V37h8.85V32.59h2.21l.74.74V44.39h-2.95V40h-8.85v3.69l-.74.74Z"/><path class="cls-1" d="M181.21,73H19.79A17.81,17.81,0,0,1,2,55.21V19.79A17.81,17.81,0,0,1,19.79,2H181.21A17.81,17.81,0,0,1,199,19.79V55.21A17.81,17.81,0,0,1,181.21,73ZM19.79,6A13.8,13.8,0,0,0,6,19.79V55.21A13.8,13.8,0,0,0,19.79,69H181.21A13.8,13.8,0,0,0,195,55.21V19.79A13.8,13.8,0,0,0,181.21,6Z"/><path class="cls-1" d="M6.25,51.59H24.78A1.19,1.19,0,0,0,26,50.38l-.07-8a1.21,1.21,0,0,1,.33-.84l6.21-6.47a1.15,1.15,0,0,1,.87-.36l13.29.12a1.19,1.19,0,0,1,.94.47l5,6.59a1.18,1.18,0,0,1,.24.72v5.31a1.2,1.2,0,0,0,1.58,1.13l4-1.38a1.19,1.19,0,0,0,.8-1L60.4,34.37a1.18,1.18,0,0,0-.82-1.25L7,16.08a1.2,1.2,0,0,0-1.43.6l-.3.59A1.2,1.2,0,0,0,6,18.94l27.34,8.73A1.19,1.19,0,0,1,32.9,30L6.7,28.43a1.18,1.18,0,0,0-1.26,1.16L5.06,50.37A1.19,1.19,0,0,0,6.25,51.59Z"/><path class="cls-2" d="M6.65,16a1.19,1.19,0,0,1,.37.06l52.56,17a1.18,1.18,0,0,1,.82,1.25L59.14,46.69a1.19,1.19,0,0,1-.8,1l-4,1.38a1.32,1.32,0,0,1-.39.06,1.19,1.19,0,0,1-1.19-1.19V42.63a1.18,1.18,0,0,0-.24-.72l-5-6.59a1.19,1.19,0,0,0-.94-.47l-13.29-.12h0a1.19,1.19,0,0,0-.86.36l-6.21,6.47a1.21,1.21,0,0,0-.33.84l.07,8a1.19,1.19,0,0,1-1.19,1.21H6.25a1.19,1.19,0,0,1-1.19-1.22l.38-20.78a1.18,1.18,0,0,1,1.19-1.16H6.7L32.9,30H33a1.19,1.19,0,0,0,.35-2.32L6,18.94a1.2,1.2,0,0,1-.71-1.67l.3-.59A1.18,1.18,0,0,1,6.65,16M8,27.5l-1.24-.07H6.63a2.19,2.19,0,0,0-2.19,2.15L4.06,50.36a2.15,2.15,0,0,0,.63,1.57,2.18,2.18,0,0,0,1.56.66H24.78A2.19,2.19,0,0,0,27,50.38l-.07-8a.24.24,0,0,1,.05-.14l6.21-6.47a.24.24,0,0,1,.14-.05l13.29.12a.2.2,0,0,1,.15.07l5,6.59a.19.19,0,0,1,0,.12v5.31A2.2,2.2,0,0,0,54,50.13a2.16,2.16,0,0,0,.71-.12l4-1.37a2.18,2.18,0,0,0,1.47-1.85L61.4,34.47a2.19,2.19,0,0,0-1.51-2.3l-52.56-17A2.25,2.25,0,0,0,6.65,15h0a2.18,2.18,0,0,0-2,1.22l-.29.58a2.17,2.17,0,0,0-.06,1.83,2.21,2.21,0,0,0,1.35,1.24L33,28.62a.16.16,0,0,1,.13.21c0,.16-.12.16-.17.16L8,27.5"/><circle class="cls-1" cx="38.87" cy="49.6" r="10.36"/><path class="cls-2" d="M38.87,39.24A10.36,10.36,0,1,1,28.51,49.6,10.36,10.36,0,0,1,38.87,39.24m0-1A11.36,11.36,0,1,0,50.24,49.6,11.38,11.38,0,0,0,38.87,38.24Z"/><path class="cls-2" d="M181.21,2A17.81,17.81,0,0,1,199,19.79V55.21A17.81,17.81,0,0,1,181.21,73H19.79A17.81,17.81,0,0,1,2,55.21V19.79A17.81,17.81,0,0,1,19.79,2H181.21M19.79,69H181.21A13.8,13.8,0,0,0,195,55.21V19.79A13.8,13.8,0,0,0,181.21,6H19.79A13.8,13.8,0,0,0,6,19.79V55.21A13.8,13.8,0,0,0,19.79,69M181.21,0H19.79A19.82,19.82,0,0,0,0,19.79V55.21A19.82,19.82,0,0,0,19.79,75H181.21A19.82,19.82,0,0,0,201,55.21V19.79A19.82,19.82,0,0,0,181.21,0ZM19.87,67.23A11.8,11.8,0,0,1,8.05,55.48L8,20.05A11.8,11.8,0,0,1,19.7,8.23l161.43-.46A11.8,11.8,0,0,1,193,19.52l.1,35.43A11.8,11.8,0,0,1,181.3,66.77l-161.43.46Z"/></g></g></svg>