<svg xmlns="http://www.w3.org/2000/svg" viewBox="0 0 49.64 49.67"><defs><style>.cls-1{fill:#ea1a7b;}</style></defs><title>настройки</title><g id="Слой_2" data-name="Слой 2"><g id="Слой_1-2" data-name="Слой 1"><path class="cls-1" d="M29.35,13.85a11.93,11.93,0,0,0-9.09,0L17.91,8.24a18,18,0,0,1,13.76,0ZM24.77,0,23.23.06a9.8,9.8,0,0,0-1.06.09L21.7.21a38.89,38.89,0,0,0-.8,7.09l.48-.12.48-.07,1-.14a7.93,7.93,0,0,1,1-.07l1-.05c.65,0,1.31.06,2,.1l1,.15a7.89,7.89,0,0,1,1,.18c0-1.2-.12-2.36-.26-3.54s-.33-2.36-.58-3.55A12.79,12.79,0,0,0,26.3.06c-.51,0-1-.06-1.53-.06M18,41.46a17.87,17.87,0,0,0,6.88,1.35,18.05,18.05,0,0,0,6.88-1.38l-2.35-5.64a11.87,11.87,0,0,1-9.09,0Zm8.44,8.14a9.81,9.81,0,0,0,1-.08l.48-.07a38.78,38.78,0,0,0,.79-7.09l-.47.12-.49.07-1,.14a8.09,8.09,0,0,1-1,.08l-1,0c-.65,0-1.3-.05-1.95-.1l-1-.15a7.71,7.71,0,0,1-1-.17c0,1.19.11,2.35.25,3.53s.33,2.36.58,3.55c.51.09,1,.1,1.53.14s1,.06,1.54.06ZM8.24,31.76A18,18,0,0,0,18,41.46l2.32-5.64a12,12,0,0,1-3.86-2.57,11.88,11.88,0,0,1-2.59-3.84Zm-.57,11,.79.7.8.7.38.28c1-.67,2-1.38,2.91-2.11s1.8-1.51,2.66-2.34a6.3,6.3,0,0,1-.8-.55l-.79-.58c-.5-.42-1-.85-1.46-1.3l-.67-.72a7.55,7.55,0,0,1-.64-.74l-.59-.78L10,35l-.26-.42a39.61,39.61,0,0,0-4.42,5.6l.47.61c.17.2.34.38.52.58l1,1.12A3.74,3.74,0,0,0,7.67,42.78ZM8.2,18a18,18,0,0,0,0,13.76l5.63-2.35a11.93,11.93,0,0,1,0-9.09ZM.06,26.44a9.59,9.59,0,0,0,.09,1L.21,28a38.87,38.87,0,0,0,7.09.79l-.12-.47-.07-.49-.14-1a8.07,8.07,0,0,1-.07-1l-.05-1c0-.65.06-1.3.1-1.95l.15-1a7.73,7.73,0,0,1,.18-1c-1.2,0-2.36.11-3.54.25s-2.36.33-3.55.58a13.16,13.16,0,0,0-.13,1.53c0,.51-.06,1-.06,1.54ZM17.91,8.24A18,18,0,0,0,8.2,18l5.65,2.32a11.83,11.83,0,0,1,2.56-3.86,12,12,0,0,1,3.85-2.59Zm-11-.57-.71.79-.69.8-.29.38c.67,1,1.38,2,2.12,2.91a34.51,34.51,0,0,0,2.34,2.66,6.3,6.3,0,0,1,.55-.8l.57-.79c.43-.5.86-1,1.3-1.46l.72-.67a8.93,8.93,0,0,1,.74-.64l.78-.59.39-.29.42-.26a38.5,38.5,0,0,0-5.6-4.42l-.61.47-.57.52-1.13,1S7.08,7.45,6.89,7.67ZM31.74,41.44a17.94,17.94,0,0,0,9.7-9.76l-5.65-2.32a12,12,0,0,1-2.56,3.86,11.88,11.88,0,0,1-3.85,2.59Zm10.68.92,1-1.13a8.35,8.35,0,0,0,.68-.81l.3-.38A38.43,38.43,0,0,0,40,34.46l-.25.42-.29.4-.59.78a6.32,6.32,0,0,1-.63.74l-.66.73c-.47.45-1,.88-1.46,1.31l-.78.58a7.22,7.22,0,0,1-.81.55c.87.83,1.75,1.59,2.68,2.32s1.91,1.44,2.92,2.1c.42-.29.79-.65,1.18-1s.77-.68,1.13-1m-1-24.44a17.94,17.94,0,0,0-9.76-9.7l-2.32,5.64a12,12,0,0,1,6.45,6.41ZM41.19,6.2a10.42,10.42,0,0,0-.81-.69L40,5.22a38.42,38.42,0,0,0-5.57,4.45l.42.26.39.29.78.58a7.55,7.55,0,0,1,.74.64l.73.66c.45.47.88,1,1.31,1.45l.58.79a7.22,7.22,0,0,1,.55.81c.83-.87,1.59-1.75,2.32-2.68s1.44-1.91,2.11-2.92c-.3-.42-.66-.79-1-1.18s-.68-.77-1-1.13Zm.25,25.48a18,18,0,0,0,0-13.76l-5.63,2.35a12.08,12.08,0,0,1,.92,4.55,11.86,11.86,0,0,1-.9,4.54Zm8.19-7.38-.06-1.06-.07-1.06-.07-.47c-1.19-.24-2.37-.43-3.55-.56s-2.34-.21-3.54-.23a6.25,6.25,0,0,1,.18,1l.16,1c0,.64.09,1.3.11,1.95l0,1a7.91,7.91,0,0,1-.07,1l-.14,1-.06.49-.12.47a39,39,0,0,0,7.09-.83l.1-.77c0-.25,0-.51,0-.76l0-1.54A4.39,4.39,0,0,0,49.63,24.3Z"/></g></g></svg>