<svg xmlns="http://www.w3.org/2000/svg" viewBox="0 0 91 38"><defs><style>.cls-1{fill:#ea1a7b;}</style></defs><title>назад</title><g id="Слой_2" data-name="Слой 2"><g id="Слой_1-2" data-name="Слой 1"><path class="cls-1" d="M91,38H0V0H91ZM22.11,28.7l1.21-1.22V23.83H19.67l-5.48-5.48,4.26-4.27h3.66l1.21-1.21V9.21H16L8.71,16.52v3.65l8.53,8.53Zm22-4.7.61-.61V19.72l-.61-.61.61-.61V16.05L42.9,14.21H32.5V24ZM35,17.88V16.66h6.72l.62.61v.61Zm0,3.67V20.33h7.34v1.22ZM47.79,24l.61-.61V20.33h7.34V24h1.83l.62-.61V14.21H49L46,17.27V24Zm.61-6.12,1.22-1.22h6.12v1.22ZM71,24l.61-.61V21.55h-8l-1.83-1.83V16.66H71l.61-.61V14.21H59.41v6.73L62.47,24Zm4.28,0V20.33h1.84L80.81,24H85.1V22.78l-1.23-1.23H82l-2.45-2.44L82,16.66h2.44l.62-.61V14.21H80.81l-3.66,3.67H75.31V14.21H73.48l-.62.62V24Z"/></g></g></svg>