<svg xmlns="http://www.w3.org/2000/svg" viewBox="0 0 101.34 89.81"><defs><style>.cls-1,.cls-2{fill:#ea1a7b;}.cls-2{opacity:0.5;}</style></defs><title>стрелочка</title><g id="Слой_2" data-name="Слой 2"><g id="Слой_1-2" data-name="Слой 1"><path class="cls-1" d="M6.24,49.83,90.83,86.35a5.36,5.36,0,0,0,6.76-7.63L79.42,47.61a5.35,5.35,0,0,1,0-5.41L97.59,11.1a5.37,5.37,0,0,0-6.76-7.64L6.24,40A5.36,5.36,0,0,0,6.24,49.83Z"/><path class="cls-2" d="M93,3a5.39,5.39,0,0,1,4.59,8.1L79.42,42.2a5.35,5.35,0,0,0,0,5.41L97.59,78.72a5.35,5.35,0,0,1-6.76,7.63L6.24,49.83a5.36,5.36,0,0,1,0-9.85L90.83,3.46A5.36,5.36,0,0,1,93,3m0-3a8.41,8.41,0,0,0-3.36.71L5.05,37.23a8.36,8.36,0,0,0,0,15.36L89.64,89.11a8.32,8.32,0,0,0,10.6-3.55,8.26,8.26,0,0,0-.06-8.35L82,46.1a2.38,2.38,0,0,1,0-2.39l18.17-31.1a8.26,8.26,0,0,0,.06-8.35A8.4,8.4,0,0,0,93,0Z"/></g></g></svg>