<svg xmlns="http://www.w3.org/2000/svg" viewBox="0 0 111 31"><defs><style>.cls-1{fill:#ea1a7b;opacity:0.5;}.cls-2{fill:#ef1385;}</style></defs><title>установлено анг</title><g id="Слой_2" data-name="Слой 2"><g id="Слой_1-2" data-name="Слой 1"><path class="cls-1" d="M103.18,1A6.82,6.82,0,0,1,110,7.82V23.18A6.82,6.82,0,0,1,103.18,30H7.82A6.82,6.82,0,0,1,1,23.18V7.82A6.82,6.82,0,0,1,7.82,1h95.36m0-1H7.82A7.83,7.83,0,0,0,0,7.82V23.18A7.83,7.83,0,0,0,7.82,31h95.36A7.83,7.83,0,0,0,111,23.18V7.82A7.83,7.83,0,0,0,103.18,0Z"/><polygon class="cls-2" points="85.71 14.57 85.71 14.1 80.02 14.1 80.02 15.04 85.24 15.04 85.71 14.57"/><polygon class="cls-2" points="54.39 15.04 54.39 14.1 49.65 14.1 48.7 15.04 54.39 15.04"/><path class="cls-2" d="M103.18,1H7.82A6.82,6.82,0,0,0,1,7.82V23.18A6.82,6.82,0,0,0,7.82,30h95.36A6.82,6.82,0,0,0,110,23.18V7.82A6.82,6.82,0,0,0,103.18,1ZM14.53,19.31l-.48.48H12.63V12.2h1.9ZM25,19.79H22.6l-5.22-5.22v4.74l-.48.48H15.48V12.67L16,12.2h1.9l5.22,5.22V12.2H25Zm10.44-6.64-.95.94H27.82V15h7.11l.48.48v2.85L34,19.79H25.92v-1.9H33l.47-.47v-.48H25.92V13.62l1.42-1.42h8.07Zm10.44,0-1,.94H42.05v5.7h-1.9v-5.7H36.36V12.2h9.49Zm10.44,6.16-.47.48H54.39V16.94H48.7v2.37l-.48.48H46.8V14.57l2.37-2.37h7.12Zm10.44,0-.47.48H59.61l-2.37-2.37V12.67l.47-.47h1.43v4.27l1.42,1.42h6.17Zm10.44,0-.47.48H70.05l-2.37-2.37V12.67l.47-.47h1.43v4.27L71,17.89h6.17Zm10.44-3.79-1.42,1.42h-5.7l1,.95h5.22l1,.95v.95H80.49l-2.37-2.37V12.67l.47-.47h9Zm10.44,2.37-1.9,1.9H88.56V12.2h8.07l1.42,1.42Z"/><polygon class="cls-2" points="90.46 17.89 95.2 17.89 96.15 16.94 96.15 14.1 90.46 14.1 90.46 17.89"/></g></g></svg>