<svg xmlns="http://www.w3.org/2000/svg" viewBox="0 0 111 31"><defs><style>.cls-1,.cls-2{fill:#ea1a7b;}.cls-2{opacity:0.5;}</style></defs><title>установлено рус</title><g id="Слой_2" data-name="Слой 2"><g id="Слой_1-2" data-name="Слой 1"><rect class="cls-1" x="61.01" y="16.44" width="4.27" height="0.71"/><polygon class="cls-1" points="53.18 17.15 57.45 17.15 57.45 14.31 54.25 14.31 53.18 15.37 53.18 17.15"/><polygon class="cls-1" points="41.44 15.02 41.8 14.66 41.8 14.31 38.24 14.31 37.53 15.02 41.44 15.02"/><polygon class="cls-1" points="61.01 14.31 61.01 15.02 65.28 15.02 65.28 14.66 64.92 14.31 61.01 14.31"/><polygon class="cls-1" points="92.31 17.15 96.58 17.15 96.58 14.31 93.38 14.31 92.31 15.37 92.31 17.15"/><path class="cls-1" d="M103.18,1H7.82A6.82,6.82,0,0,0,1,7.82V23.18A6.82,6.82,0,0,0,7.82,30h95.36A6.82,6.82,0,0,0,110,23.18V7.82A6.82,6.82,0,0,0,103.18,1ZM19.74,17.15l-1.42,1.42H13l-.36-.35V17.15h5l.71-.71H12.63V12.88h1.42V15h4.27V12.88h1.42ZM27.57,14l-.36.36H21.88v1.77L23,17.15h4.62v1.07l-.36.35h-5L20.46,16.8V12.88h7.11Zm7.83.36H32.55v4.26H31.13V14.31H28.28V12.88H35.4Zm7.82,3.91-.35.35H41.8V16.8l-.36-.36H37.53v1.78l-.36.35H36.11V14.66l1.78-1.78h5.33Zm7.83.35H49.62V16.44H45.36v1.78l-.36.35H43.93V12.88h1.43V15h4.26V12.88h1.07l.36.36Zm7.82,0H51.76V14.66l1.78-1.78h5.33Zm7.83-3.2-.36.36.36.35v2.14l-.36.35H59.58V12.88h6L66.7,14Zm7.82,3.2H73.1V14.66l-.36-.35H70.25V16.8l-1.77,1.77H67.41V17.51l1.42-1.43v-3.2h5l.71.71Zm7.83-4.26H76.66V15h5.69v1.06l-.36.36H77l.71.71H82l.36.36v1.06H77L75.23,16.8V12.88h7.12Zm7.82,4.26H88.75V16.44H84.48v1.78l-.35.35H83.06V12.88h1.42V15h4.27V12.88h1.07l.35.36Zm7.83,0H90.89V14.66l1.77-1.78H98Z"/><path class="cls-2" d="M103.18,1A6.82,6.82,0,0,1,110,7.82V23.18A6.82,6.82,0,0,1,103.18,30H7.82A6.82,6.82,0,0,1,1,23.18V7.82A6.82,6.82,0,0,1,7.82,1h95.36m0-1H7.82A7.83,7.83,0,0,0,0,7.82V23.18A7.83,7.83,0,0,0,7.82,31h95.36A7.83,7.83,0,0,0,111,23.18V7.82A7.83,7.83,0,0,0,103.18,0Z"/></g></g></svg>