<svg xmlns="http://www.w3.org/2000/svg" viewBox="0 0 110 30"><defs><style>.cls-1,.cls-2{fill:#ea1a7b;}.cls-2{opacity:0.5;}.cls-3{fill:#ef1385;}</style></defs><title>установить анг</title><g id="Слой_2" data-name="Слой 2"><g id="Слой_1-2" data-name="Слой 1"><path class="cls-1" d="M102.68,2.5a4.82,4.82,0,0,1,4.82,4.82V22.68a4.82,4.82,0,0,1-4.82,4.82H7.32A4.82,4.82,0,0,1,2.5,22.68V7.32A4.82,4.82,0,0,1,7.32,2.5h95.36m0-2H7.32A6.82,6.82,0,0,0,.5,7.32V22.68A6.82,6.82,0,0,0,7.32,29.5h95.36a6.82,6.82,0,0,0,6.82-6.82V7.32A6.82,6.82,0,0,0,102.68.5Z"/><path class="cls-2" d="M102.68,30H7.32A7.32,7.32,0,0,1,0,22.68V7.32A7.32,7.32,0,0,1,7.32,0h95.36A7.32,7.32,0,0,1,110,7.32V22.68A7.32,7.32,0,0,1,102.68,30ZM7.32,1A6.33,6.33,0,0,0,1,7.32V22.68A6.33,6.33,0,0,0,7.32,29h95.36A6.33,6.33,0,0,0,109,22.68V7.32A6.33,6.33,0,0,0,102.68,1Zm95.36,27H7.32A5.33,5.33,0,0,1,2,22.68V7.32A5.33,5.33,0,0,1,7.32,2h95.36A5.33,5.33,0,0,1,108,7.32V22.68A5.33,5.33,0,0,1,102.68,28ZM7.32,3A4.33,4.33,0,0,0,3,7.32V22.68A4.33,4.33,0,0,0,7.32,27h95.36A4.33,4.33,0,0,0,107,22.68V7.32A4.33,4.33,0,0,0,102.68,3Z"/><path class="cls-3" d="M19.13,19V10.5h2.12v7.93l-.53.53Z"/><path class="cls-3" d="M22.3,19V11l.53-.53H25l5.82,5.82V10.5h2.11V19H30.24l-5.82-5.82v5.29l-.53.53Z"/><path class="cls-3" d="M33.94,19V16.85h7.93l.53-.53v-.53H33.94v-3.7l1.59-1.59h9v1.06l-1.06,1.06h-7.4v1.05H44l.53.53v3.18L42.93,19Z"/><path class="cls-3" d="M49.81,19V12.62H45.58V10.5H56.15v1.06l-1,1.06H51.92V19Z"/><path class="cls-3" d="M57.21,19V13.14l2.65-2.64h7.93v7.93l-.53.53H65.67V15.79H59.33v2.64L58.8,19Zm8.46-5.29V12.62H60.38l-1.05,1.05Z"/><path class="cls-3" d="M71.49,19l-2.64-2.64V11l.53-.53H71v4.76l1.59,1.59h6.88v1.58L78.9,19Z"/><path class="cls-3" d="M83.13,19l-2.65-2.64V11L81,10.5H82.6v4.76l1.59,1.59h6.87v1.58l-.53.53Z"/></g></g></svg>